<?xml version="1.0" encoding="utf-8"?>
<!-- Generator: Adobe Illustrator 21.1.0, SVG Export Plug-In . SVG Version: 6.00 Build 0)  -->
<svg version="1.1" id="Layer_1" xmlns="http://www.w3.org/2000/svg" xmlns:xlink="http://www.w3.org/1999/xlink" x="0px" y="0px"
	 viewBox="0 0 41 44.1" style="enable-background:new 0 0 41 44.1;" xml:space="preserve">
<style type="text/css">
	.st0{fill:#084560;}
</style>
<path class="st0" d="M32.3,19.2c7.2-1.8,8.9-9.8,8.7-14c0-0.8-0.7-1.4-1.5-1.4h-6.8V1.5c0-0.8-0.7-1.5-1.5-1.5H9.8
	C8.9,0,8.3,0.7,8.3,1.5v2.3H1.5C0.7,3.8,0,4.4,0,5.2c-0.2,4.2,1.4,12.2,8.7,14c1.3,5,5.2,9.6,10.3,10.3v11.5h-5.9
	c-0.8,0-1.5,0.7-1.5,1.5s0.7,1.5,1.5,1.5h14.8c0.8,0,1.5-0.7,1.5-1.5s-0.7-1.5-1.5-1.5H22V29.5C27.1,28.8,31.1,24.2,32.3,19.2z
	 M38,6.8c-0.2,2.5-1.1,7.4-5.2,9.1v0V6.8H38z M3,6.8h5.2v9.1c0,0,0,0,0,0C4.1,14.2,3.2,9.3,3,6.8z M11.3,15.9V3h18.5v12.9
	c0,5-4,10.8-9.2,10.8S11.3,20.9,11.3,15.9z"/>
</svg>
