<?xml version="1.0" encoding="utf-8"?>
<!-- Generator: Adobe Illustrator 21.1.0, SVG Export Plug-In . SVG Version: 6.00 Build 0)  -->
<svg version="1.1" id="Layer_1" xmlns="http://www.w3.org/2000/svg" xmlns:xlink="http://www.w3.org/1999/xlink" x="0px" y="0px"
	 viewBox="0 0 377.3 75.4" style="enable-background:new 0 0 377.3 75.4;" xml:space="preserve">
<style type="text/css">
	.st0{fill:none;}
	.st1{fill:#FFFFFF;}
</style>
<g>
	<path class="st0" d="M96.4,56.8c-1.1,0-2.6,1.1-3.3,2.3v5.8c0.6,1.3,1.8,2.5,3.3,2.5c2.1,0,3.5-2.1,3.5-5.3
		C100,59.1,98.8,56.8,96.4,56.8z"/>
	<path class="st1" d="M97.4,55.3c-2.1,0-3.6,1.1-4.3,2v-1.6c-1.6,0.1-2.3,0.1-3.8,0c0,2.8,0.1,6,0.1,9.1c0,3.8,0,7.5-0.1,10.1
		c1.5-0.1,2.3-0.1,3.9,0c0,0-0.1-5.5-0.1-4.2c0,2,0-3.9,0-3.9c0.8,0.9,2.1,2,4.2,2c4.6,0,6.7-3.4,6.7-6.9
		C104.1,58,101.5,55.3,97.4,55.3z M96.5,67.4c-1.6,0-2.8-1.1-3.3-2.5v-5.8c0.6-1.2,2.1-2.3,3.3-2.3c2.4,0,3.6,2.4,3.6,5.3
		C100,65.3,98.6,67.4,96.5,67.4z"/>
</g>
<path class="st1" d="M132.4,55.1c-0.5-0.1-0.9-0.2-1.3-0.2c-1.8,0-3,1-3.7,1.8c0-0.3,0-0.6,0-0.9l0-0.4l-0.4,0c-0.8,0-1.4,0-2,0
	c-0.6,0-1.2,0-1.9,0l-0.4,0l0,0.4c0.1,2.3,0.1,4.1,0.1,6.7c0,1.8,0,4.2-0.1,6.1l0,0.4l0.4,0c0.6,0,1.1-0.1,1.7-0.1
	c0.7,0,1.4,0,2.3,0.1l0.4,0l0-0.4c0-1.5-0.1-3.8-0.1-5.9c0-0.8,0-1.4,0-2c0-0.3,0-0.6,0-0.8c1-1.8,2-1.9,3-1.9
	c0.7,0,1.3,0.3,1.5,0.4l0.5,0.2l0-0.5l0.3-2.9L132.4,55.1z"/>
<g>
	<path class="st0" d="M156.4,67.5C156.4,67.5,156.5,67.5,156.4,67.5c0.9,0,1.5-0.5,2-1.5c0.5-0.9,0.8-2.3,0.8-3.7v-0.2
		c0-1.5-0.3-2.9-0.9-3.8c-0.5-1-1.2-1.5-2-1.5h0l0-0.4h0l0,0.4c-0.8,0-1.5,0.5-2,1.5c-0.5,0.9-0.8,2.3-0.8,3.7c0,0.1,0,0.1,0,0.2
		c0,1.5,0.3,2.9,0.9,3.8C154.9,67,155.6,67.5,156.4,67.5z"/>
	<path class="st1" d="M161.9,56.8c-1.4-1.2-3.4-1.9-5.5-1.9c-2.2,0-4.1,0.7-5.5,1.9c-1.4,1.2-2.3,3.1-2.3,5.3c0,2.3,0.8,4.1,2.2,5.3
		c1.4,1.2,3.3,1.9,5.5,1.9c2.2,0,4.1-0.6,5.5-1.9c1.4-1.2,2.3-3.1,2.3-5.3C164.2,59.8,163.3,58,161.9,56.8z M153.6,62.2
		c0-0.1,0-0.1,0-0.2c0-1.5,0.3-2.8,0.8-3.7c0.5-1,1.2-1.5,2-1.5l0-0.4h0l0,0.4h0c0.8,0,1.5,0.5,2,1.5c0.5,1,0.8,2.4,0.9,3.8v0.2
		c0,1.5-0.3,2.8-0.8,3.7c-0.5,0.9-1.2,1.5-2,1.5c0,0,0,0-0.1,0c-0.8,0-1.5-0.5-2-1.5C153.9,65,153.6,63.6,153.6,62.2z"/>
</g>
<g>
	<path class="st0" d="M187.1,64.8c0.6,1.2,1.6,2.2,3,2.2c1.8,0,3.1-1.8,3.1-4.9c0-1.4-0.3-2.7-0.9-3.6c-0.6-0.9-1.3-1.4-2.4-1.4v0
		c-0.9,0-2.3,1-2.9,2V64.8z"/>
	<path class="st1" d="M196,56.9c-1.2-1.2-3-2-5.1-2c-1.7,0-3,0.7-3.9,1.5v-1l-0.4,0c-0.8,0-1.4,0-1.9,0c-0.6,0-1.1,0-1.9,0l-0.4,0
		l0,0.4c0,2.8,0.1,6,0.1,9.1c0,3.8,0,7.5-0.1,10.1l0,0.4l0.4,0c0.8,0,1.4-0.1,2-0.1c0.5,0,1.1,0,1.8,0.1l0.4,0l0-0.4
		c0,0,0-1.1,0-2.2c0-0.5,0-1.1,0-1.5c0-0.2,0-0.4,0-0.5c0-0.1,0-0.1,0-0.1c0,0,0,0,0,0v0c0,0,0,0,0,0c0,0,0,0,0,0c0-0.7,0-1.9,0-2.7
		c0.9,0.8,2.1,1.5,3.8,1.5c2.4,0,4.2-0.9,5.4-2.3c1.2-1.4,1.7-3.2,1.7-5C198,60,197.3,58.2,196,56.9z M189.9,57.1L189.9,57.1
		c1.1,0,1.8,0.5,2.4,1.4c0.6,0.9,0.9,2.2,0.9,3.6c0,3.1-1.4,4.9-3.1,4.9c-1.3,0-2.4-1-3-2.2v-5.7C187.6,58.1,189,57.1,189.9,57.1z"
		/>
</g>
<g>
	<path class="st0" d="M220.6,57.8c-0.4,0.6-0.6,1.5-0.6,2.5h4.8c0-0.8-0.2-1.7-0.5-2.3c-0.4-0.7-0.9-1.2-1.9-1.2
		C221.5,56.7,221,57.1,220.6,57.8z"/>
	<path class="st1" d="M226.8,56.3c-1.4-1-3.2-1.4-4.5-1.4c-3.3,0-7.1,2.6-7.1,7c0,2.4,0.8,4.3,2.1,5.5c1.3,1.3,3.1,1.9,5,1.9h0
		c3.8,0,5.7-2.3,6.4-3l0.2-0.2l-1.2-1.3l-0.3,0.3c-1.3,1.5-2.4,1.8-3.5,1.8c-1.7,0-2.6-0.8-3.2-1.9c-0.5-0.9-0.7-2-0.8-2.9h9.3
		l0-0.4c0-0.1,0-0.3,0-0.4C229.4,59,228.3,57.3,226.8,56.3z M224.3,57.9c0.3,0.6,0.5,1.5,0.5,2.3H220c0-1,0.2-1.9,0.6-2.5
		c0.4-0.7,0.9-1.1,1.8-1.1C223.4,56.7,223.9,57.2,224.3,57.9z"/>
</g>
<path class="st1" d="M257.6,55.1c-0.5-0.1-0.9-0.2-1.3-0.2c-1.8,0-3,1-3.7,1.8c0-0.3,0-0.6,0-0.9l0-0.4l-0.4,0c-0.8,0-1.4,0-2,0
	c-0.6,0-1.2,0-1.9,0l-0.4,0l0,0.4c0.1,2.3,0.1,4.1,0.1,6.7c0,1.8,0,4.2-0.1,6.1l0,0.4l0.4,0c0.6,0,1.1-0.1,1.7-0.1
	c0.7,0,1.4,0,2.3,0.1l0.4,0l0-0.4c0-1.5-0.1-3.8-0.1-5.9c0-0.8,0-1.4,0-2c0-0.3,0-0.6,0-0.8c1-1.8,2-1.9,3-1.9
	c0.7,0,1.3,0.3,1.5,0.4l0.5,0.2l0-0.5l0.3-2.9L257.6,55.1z"/>
<path class="st1" d="M284.2,65.7l-0.4,0.4c-0.5,0.5-1.2,0.7-1.7,0.7c-1.8,0-2-1.1-2.1-2.4c0-1.9,0-4.1,0-5.6c0-0.5,0-1,0-1.4h3.8
	v-1.9H280v-4.7l-0.6,0.7c-2,2.2-3,3.1-5.3,5.1l-0.7,0.6h2.1c0,0.6,0,1,0,2.3c0,1.2,0,3.9-0.1,4.8c0,0.1,0,0.1,0,0.2
	c0,1.9,0.8,3.2,1.7,3.9c1,0.7,2.1,0.9,2.9,0.9h0.1c1.5,0,3-0.3,4.5-1.8l0.2-0.2L284.2,65.7z"/>
<path class="st1" d="M306.9,55.4l-0.4,0c-0.8,0-1.4,0-2,0c-0.6,0-1.2,0-2,0l-0.4,0v0.4c0,1.6,0.1,4.8,0.1,6.4c0,1.6-0.1,5-0.1,6.5
	v0.4l0.4,0c0.7,0,1.4,0,2,0c0.6,0,1.2,0,2,0l0.4,0v-0.4c0-1.5-0.1-4.8-0.1-6.5c0-1.7,0.1-4.8,0.1-6.4V55.4z"/>
<g>
	<path class="st0" d="M330.6,57.8c-0.4,0.6-0.5,1.5-0.6,2.5h4.8c0-0.8-0.2-1.7-0.5-2.3c-0.4-0.7-0.9-1.2-1.9-1.2
		C331.5,56.7,331,57.1,330.6,57.8z"/>
	<path class="st1" d="M336.8,56.3c-1.4-1-3.2-1.4-4.5-1.4c-3.3,0-7.1,2.6-7.1,7c0,2.4,0.8,4.3,2.1,5.5c1.3,1.3,3.1,1.9,5,1.9h0
		c3.8,0,5.7-2.3,6.4-3l0.2-0.2l-1.2-1.3l-0.3,0.3c-1.3,1.5-2.4,1.8-3.5,1.8c-1.7,0-2.6-0.8-3.2-1.9c-0.5-0.9-0.7-2-0.8-2.9h9.3
		l0-0.4c0-0.1,0-0.3,0-0.4C339.3,59,338.2,57.3,336.8,56.3z M334.2,57.9c0.3,0.6,0.5,1.5,0.5,2.3H330c0-1,0.2-1.9,0.6-2.5
		c0.4-0.7,0.9-1.1,1.8-1.1C333.3,56.7,333.9,57.2,334.2,57.9z"/>
</g>
<path class="st1" d="M366.7,64.6c-0.1-2.7-2.1-3.6-4-4.4c-0.9-0.4-1.6-0.6-1.9-0.8c-0.4-0.3-0.4-0.4-0.5-0.9c0,0,0-0.1,0-0.1
	c0.1-0.7,0.6-1.4,1.8-1.4c0,0,0.1,0,0.2,0c1.1,0,2,0.3,3,0.6l0.5,0.2l0.1-1.9l-0.2-0.1c-1.3-0.7-2.9-0.8-3.9-0.8c-0.1,0-0.2,0-0.2,0
	c-3.1,0.1-5.4,2-5.3,4.7c0,0,0,0.1,0,0.1c0,2.2,1.5,3.5,3.6,4.2c0.7,0.2,1.4,0.4,2,0.7c0.5,0.3,0.8,0.6,0.8,1.1v0
	c0,0.8-0.8,1.5-2.1,1.5c-0.1,0-0.2,0-0.3,0c-1.8,0-2.5-0.5-3.6-0.9l-0.5-0.2l0,2l0.2,0.1c1.3,0.6,2.7,1,4.2,1c0,0,0.1,0,0.1,0
	c1.4-0.1,2.7-0.3,3.8-1C365.9,67.5,366.7,66.2,366.7,64.6C366.7,64.6,366.7,64.6,366.7,64.6z"/>
<path class="st1" d="M108.4,12.7c-5.8,0-13.1,5.2-13.1,16.5c0,11.5,7.2,16.3,13.1,16.4c5.9,0,13-4.9,13.1-16.4
	C121.4,17.8,114.3,12.7,108.4,12.7 M108.4,49.6c-6.2,0-11.6-2.1-15.4-5.8c-3.8-3.6-6-8.8-6-14.6c0-5.8,2.2-11,6-14.6
	c3.8-3.7,9.2-5.8,15.4-5.8c6.2,0,11.6,2.2,15.4,5.8c3.8,3.7,6,8.8,6,14.6c0,5.8-2.2,11-6,14.6C120,47.4,114.6,49.6,108.4,49.6
	L108.4,49.6z"/>
<path class="st1" d="M153.7,12.7c-5.8,0-13.1,5.2-13.1,16.5c0,11.5,7.2,16.3,13.1,16.4c5.9,0,13-4.9,13.1-16.4
	C166.8,17.8,159.6,12.7,153.7,12.7 M153.7,49.6c-6.2,0-11.6-2.1-15.4-5.8c-3.8-3.6-6-8.8-6-14.6c0-5.8,2.2-11,6-14.6
	c3.8-3.7,9.2-5.8,15.4-5.8c6.2,0,11.6,2.2,15.4,5.8c3.8,3.7,6,8.8,6,14.6c0,5.8-2.2,11-6,14.6C165.3,47.4,159.9,49.6,153.7,49.6
	L153.7,49.6z"/>
<path class="st1" d="M189.9,13.9c-2,0-2.9,0-4,0.1c0,3.4-0.1,9.2-0.1,14.5c0,6.3,0,12.3,0.1,15.9c0.9,0,1.3,0,2.5,0
	c1.6,0,2.8,0,3.1-0.1c8.9-1.1,14.3-6.6,14.3-15.3c0-5.2-2.1-8.9-5.1-11.4C197.6,15.1,193.6,13.9,189.9,13.9 M193,48.7
	c-5.2,0-5-0.1-7.8-0.1c-3.5,0-5.6,0-6.1,0H178l0-1.1c0,0,0.2-13.8,0.2-18c0-4.2-0.2-19-0.2-19l0-1.2l1.2,0.1c0,0,1.9,0.1,5.8,0.1
	c6.7,0,4.8-0.1,7.9-0.1c5.7,0,11,1.8,14.9,5.2c3.9,3.4,6.3,8.4,6.3,14.4c0,6.2-2.5,11.2-6.4,14.5C203.7,47,198.5,48.7,193,48.7"/>
<path class="st1" d="M238.6,48.7c-0.1,0-0.5,0-0.9,0c-0.4,0-0.9,0-1.1,0l-0.8,0.1l-0.3-0.7c-2.7-5.6-2.8-6-6.8-14.2
	c-2.4-4.9-4-8.1-6-12.4c-0.3,3.7-0.5,6.3-1,11.8c-0.5,5.6-0.6,8.7-1,14.3l-0.1,1.1l-1.1-0.1c-0.4,0-0.9,0-1.3,0c-0.5,0-1,0-1.5,0
	l-1.3,0.1l0.1-1.3c0.6-5.8,0.9-9.6,1.7-18.7c0.8-9,1.3-13,1.7-18.7l0.1-1.1l1.1,0.1c0.5,0,1.2,0,2,0c0.8,0,1.6,0,2.2,0l0.7,0
	l0.3,0.7c0,0,2.6,5.5,6.4,13.2c3.7,7.5,5,9.9,7.5,15c2.3-4.9,3.8-8.2,6.3-13.6c3-6.5,6.1-13.2,6.7-14.6l0.3-0.7l0.8,0
	c0.4,0,1.2,0,1.9,0c0.7,0,1.5,0,2,0l1.1-0.1l0.1,1c0,0,0.8,8.1,2.1,17.8c1.4,11,1.9,14.9,2.6,19.6l0.2,1.3l-1.3,0
	c-0.9,0-2-0.1-3.2-0.1c-0.9,0-1.7,0-2.6,0.1l-1,0.1l-0.1-1c0,0-0.7-7.1-1.5-14.9c-0.4-4.3-1-8.5-1.3-11.5c-1.7,3.6-2.9,6.1-5.4,11.5
	c-3.4,7.4-4.3,9.3-7,15.2l-0.3,0.7L238.6,48.7z"/>
<path class="st1" d="M285,12.7c-5.8,0-13.1,5.2-13.1,16.5c0,11.5,7.2,16.3,13.1,16.4c5.9,0,13-4.9,13.1-16.4
	C298.1,17.8,290.9,12.7,285,12.7 M285,49.6c-6.2,0-11.6-2.1-15.4-5.8c-3.8-3.6-6-8.8-6-14.6c0-5.8,2.2-11,6-14.6
	c3.8-3.7,9.2-5.8,15.4-5.8c6.2,0,11.6,2.2,15.4,5.8c3.8,3.7,6,8.8,6,14.6c0,5.8-2.2,11-6,14.6C296.6,47.4,291.3,49.6,285,49.6
	L285,49.6z"/>
<path class="st1" d="M337.6,49.2h-0.5l-0.3-0.4c0,0-7.7-9.9-14.1-17.7c-4.3-5.3-6.5-7.8-8.8-10.5c0,3.4,0,6.9,0,8.5
	c0,3.9,0.1,13.1,0.2,18.5l0,1.2l-1.2-0.1c-0.2,0-0.8,0-1.3,0c-0.5,0-1,0-1.2,0l-1.2,0.1v-1.2c0-0.7,0.1-14.6,0.1-18.5
	c0-4-0.1-17.9-0.1-18.6V9.3l1.2,0.1c0.4,0,1.2,0.1,2,0.1c0.8,0,1.6,0,2.2-0.1l0.6,0l0.4,0.5c0,0,6.2,8,13.1,16.5
	c4.7,5.8,7.4,9,9.8,11.9c0-3.7,0-7.4,0-9.1c0-4-0.1-15-0.2-18.5l0-1.2l1.2,0.1c0.2,0,0.8,0,1.3,0c0.5,0,1,0,1.2,0l1.2-0.1v1.2
	c0,0.6-0.1,14.5,0,18.5c0,4,0,18.3,0,19v1.1H342H337.6z"/>
<path class="st1" d="M364.4,48.7c-0.8,0-1.7-0.1-2.7-0.1c-1,0-2,0-2.9,0.1l-1.2,0.1l0-1.2c0,0,0.2-13.8,0.2-18
	c0-3-0.1-11.3-0.1-15.8c-3.1,0-7.6,0-10.6,0.2L346,14V9.5h1.1c0.5,0,6,0.1,10.2,0.1h8.8c4.2,0,9.6-0.1,10.1-0.1h1.1V14l-1.2-0.1
	c-3-0.1-7.5-0.2-10.6-0.2c0,4.6-0.1,12.8-0.1,15.8c0,4.3,0.2,18,0.2,18l0,1.2L364.4,48.7z"/>
<path class="st1" d="M57.5,68.5c0,0-1.6-3.8-3.8-9.2c-1.9-4.5-4.2-10-6.4-15.3L37,69.5L36,69.4c-0.8,0-1.7-0.1-2.6-0.1
	c-0.9,0-1.8,0-2.6,0.1l-1,0.1l-0.4-1c0,0-2.1-5-4.8-11.6c-2.8-6.6-6.2-14.9-9-21.3C9.9,22.6,0.9,2.2,0.9,2.2L0,0l2.3,0.1
	c1.2,0,2.6,0.1,4,0.1c1.4,0,2.7,0,3.7-0.1l1,0L11.4,1c0,0,7.1,16.7,11.7,27.3c2.7,6.3,6.1,14.3,8.9,20.7c1.4,3.2,2.6,6.1,3.5,8.1
	l8.4-21c-0.1-0.2-0.2-0.4-0.2-0.6C38,22.6,29.1,2.2,29.1,2.2L28.1,0l2.3,0.1c1.2,0,2.6,0.1,4,0.1c1.4,0,2.7,0,3.7-0.1l1,0L39.5,1
	c0,0,7.1,16.7,11.7,27.3c2.7,6.3,6.1,14.3,8.9,20.7c1.4,3.2,2.6,6.1,3.5,8.1L86.2,1l0.4-1l1.1,0.1c0.2,0,0.6,0,1,0
	c0.8,0,1.7,0,2.3,0h2.2L65.2,69.5l-1.1-0.1c-0.8,0-1.7-0.1-2.6-0.1c-0.9,0-1.8,0-2.6,0.1l-1,0.1L57.5,68.5z"/>
<polygon class="st1" points="42.9,0.2 54.3,26.4 64.9,0.1 "/>
</svg>
