<svg id="Layer_1" xmlns="http://www.w3.org/2000/svg" viewBox="0 0 41 44.1"><style>.st0{fill:#084560}</style><path class="st0" d="M32.3 19.2c7.2-1.8 8.9-9.8 8.7-14 0-.8-.7-1.4-1.5-1.4h-6.8V1.5C32.7.7 32 0 31.2 0H9.8c-.9 0-1.5.7-1.5 1.5v2.3H1.5C.7 3.8 0 4.4 0 5.2c-.2 4.2 1.4 12.2 8.7 14 1.3 5 5.2 9.6 10.3 10.3V41h-5.9c-.8 0-1.5.7-1.5 1.5s.7 1.5 1.5 1.5h14.8c.8 0 1.5-.7 1.5-1.5s-.7-1.5-1.5-1.5H22V29.5c5.1-.7 9.1-5.3 10.3-10.3zM38 6.8c-.2 2.5-1.1 7.4-5.2 9.1V6.8H38zm-35 0h5.2v9.1c-4.1-1.7-5-6.6-5.2-9.1zm8.3 9.1V3h18.5v12.9c0 5-4 10.8-9.2 10.8s-9.3-5.8-9.3-10.8z"/></svg>