<svg id="Layer_1" xmlns="http://www.w3.org/2000/svg" viewBox="0 0 377.3 75.4"><style>.st0{fill:none}.st1{fill:#fff}</style><path class="st0" d="M96.4 56.8c-1.1 0-2.6 1.1-3.3 2.3v5.8c.6 1.3 1.8 2.5 3.3 2.5 2.1 0 3.5-2.1 3.5-5.3.1-3-1.1-5.3-3.5-5.3z"/><path class="st1" d="M97.4 55.3c-2.1 0-3.6 1.1-4.3 2v-1.6c-1.6.1-2.3.1-3.8 0 0 2.8.1 6 .1 9.1 0 3.8 0 7.5-.1 10.1 1.5-.1 2.3-.1 3.9 0 0 0-.1-5.5-.1-4.2v-3.9c.8.9 2.1 2 4.2 2 4.6 0 6.7-3.4 6.7-6.9.1-3.9-2.5-6.6-6.6-6.6zm-.9 12.1c-1.6 0-2.8-1.1-3.3-2.5v-5.8c.6-1.2 2.1-2.3 3.3-2.3 2.4 0 3.6 2.4 3.6 5.3-.1 3.2-1.5 5.3-3.6 5.3zM132.4 55.1c-.5-.1-.9-.2-1.3-.2-1.8 0-3 1-3.7 1.8v-1.3h-4.7v.4c.1 2.3.1 4.1.1 6.7 0 1.8 0 4.2-.1 6.1v.4h.4c.6 0 1.1-.1 1.7-.1.7 0 1.4 0 2.3.1h.4v-.4c0-1.5-.1-3.8-.1-5.9v-2-.8c1-1.8 2-1.9 3-1.9.7 0 1.3.3 1.5.4l.5.2v-.5l.3-2.9-.3-.1z"/><path class="st0" d="M156.4 67.5s.1 0 0 0c.9 0 1.5-.5 2-1.5.5-.9.8-2.3.8-3.7v-.2c0-1.5-.3-2.9-.9-3.8-.5-1-1.2-1.5-2-1.5v-.4.4c-.8 0-1.5.5-2 1.5-.5.9-.8 2.3-.8 3.7v.2c0 1.5.3 2.9.9 3.8.5 1 1.2 1.5 2 1.5z"/><path class="st1" d="M161.9 56.8c-1.4-1.2-3.4-1.9-5.5-1.9-2.2 0-4.1.7-5.5 1.9-1.4 1.2-2.3 3.1-2.3 5.3 0 2.3.8 4.1 2.2 5.3 1.4 1.2 3.3 1.9 5.5 1.9s4.1-.6 5.5-1.9c1.4-1.2 2.3-3.1 2.3-5.3.1-2.3-.8-4.1-2.2-5.3zm-8.3 5.4V62c0-1.5.3-2.8.8-3.7.5-1 1.2-1.5 2-1.5v-.4.4c.8 0 1.5.5 2 1.5s.8 2.4.9 3.8v.2c0 1.5-.3 2.8-.8 3.7-.5.9-1.2 1.5-2 1.5h-.1c-.8 0-1.5-.5-2-1.5s-.8-2.4-.8-3.8z"/><path class="st0" d="M187.1 64.8c.6 1.2 1.6 2.2 3 2.2 1.8 0 3.1-1.8 3.1-4.9 0-1.4-.3-2.7-.9-3.6-.6-.9-1.3-1.4-2.4-1.4-.9 0-2.3 1-2.9 2v5.7z"/><path class="st1" d="M196 56.9c-1.2-1.2-3-2-5.1-2-1.7 0-3 .7-3.9 1.5v-1h-4.6v.4c0 2.8.1 6 .1 9.1 0 3.8 0 7.5-.1 10.1v.4h.4c.8 0 1.4-.1 2-.1.5 0 1.1 0 1.8.1h.4V75v-2.2-1.5-.5-.1V68c.9.8 2.1 1.5 3.8 1.5 2.4 0 4.2-.9 5.4-2.3 1.2-1.4 1.7-3.2 1.7-5 .1-2.2-.6-4-1.9-5.3zm-6.1.2c1.1 0 1.8.5 2.4 1.4.6.9.9 2.2.9 3.6 0 3.1-1.4 4.9-3.1 4.9-1.3 0-2.4-1-3-2.2v-5.7c.5-1 1.9-2 2.8-2z"/><path class="st0" d="M220.6 57.8c-.4.6-.6 1.5-.6 2.5h4.8c0-.8-.2-1.7-.5-2.3-.4-.7-.9-1.2-1.9-1.2-.9-.1-1.4.3-1.8 1z"/><path class="st1" d="M226.8 56.3c-1.4-1-3.2-1.4-4.5-1.4-3.3 0-7.1 2.6-7.1 7 0 2.4.8 4.3 2.1 5.5 1.3 1.3 3.1 1.9 5 1.9 3.8 0 5.7-2.3 6.4-3l.2-.2-1.2-1.3-.3.3c-1.3 1.5-2.4 1.8-3.5 1.8-1.7 0-2.6-.8-3.2-1.9-.5-.9-.7-2-.8-2.9h9.3v-.4-.4c.2-2.3-.9-4-2.4-5zm-2.5 1.6c.3.6.5 1.5.5 2.3H220c0-1 .2-1.9.6-2.5.4-.7.9-1.1 1.8-1.1 1 .1 1.5.6 1.9 1.3zM257.6 55.1c-.5-.1-.9-.2-1.3-.2-1.8 0-3 1-3.7 1.8v-1.3h-4.7v.4c.1 2.3.1 4.1.1 6.7 0 1.8 0 4.2-.1 6.1v.4h.4c.6 0 1.1-.1 1.7-.1.7 0 1.4 0 2.3.1h.4v-.4c0-1.5-.1-3.8-.1-5.9v-2-.8c1-1.8 2-1.9 3-1.9.7 0 1.3.3 1.5.4l.5.2v-.5l.3-2.9-.3-.1zM284.2 65.7l-.4.4c-.5.5-1.2.7-1.7.7-1.8 0-2-1.1-2.1-2.4v-5.6-1.4h3.8v-1.9H280v-4.7l-.6.7c-2 2.2-3 3.1-5.3 5.1l-.7.6h2.1v2.3c0 1.2 0 3.9-.1 4.8v.2c0 1.9.8 3.2 1.7 3.9 1 .7 2.1.9 2.9.9h.1c1.5 0 3-.3 4.5-1.8l.2-.2-.6-1.6zM306.9 55.4H302.1v.4c0 1.6.1 4.8.1 6.4 0 1.6-.1 5-.1 6.5v.4H306.9v-.4c0-1.5-.1-4.8-.1-6.5 0-1.7.1-4.8.1-6.4v-.4z"/><path class="st0" d="M330.6 57.8c-.4.6-.5 1.5-.6 2.5h4.8c0-.8-.2-1.7-.5-2.3-.4-.7-.9-1.2-1.9-1.2-.9-.1-1.4.3-1.8 1z"/><path class="st1" d="M336.8 56.3c-1.4-1-3.2-1.4-4.5-1.4-3.3 0-7.1 2.6-7.1 7 0 2.4.8 4.3 2.1 5.5 1.3 1.3 3.1 1.9 5 1.9 3.8 0 5.7-2.3 6.4-3l.2-.2-1.2-1.3-.3.3c-1.3 1.5-2.4 1.8-3.5 1.8-1.7 0-2.6-.8-3.2-1.9-.5-.9-.7-2-.8-2.9h9.3v-.4-.4c.1-2.3-1-4-2.4-5zm-2.6 1.6c.3.6.5 1.5.5 2.3H330c0-1 .2-1.9.6-2.5.4-.7.9-1.1 1.8-1.1.9.1 1.5.6 1.8 1.3zM366.7 64.6c-.1-2.7-2.1-3.6-4-4.4-.9-.4-1.6-.6-1.9-.8-.4-.3-.4-.4-.5-.9v-.1c.1-.7.6-1.4 1.8-1.4h.2c1.1 0 2 .3 3 .6l.5.2.1-1.9-.2-.1c-1.3-.7-2.9-.8-3.9-.8h-.2c-3.1.1-5.4 2-5.3 4.7v.1c0 2.2 1.5 3.5 3.6 4.2.7.2 1.4.4 2 .7.5.3.8.6.8 1.1 0 .8-.8 1.5-2.1 1.5h-.3c-1.8 0-2.5-.5-3.6-.9l-.5-.2v2l.2.1c1.3.6 2.7 1 4.2 1h.1c1.4-.1 2.7-.3 3.8-1 1.4-.8 2.2-2.1 2.2-3.7zM108.4 12.7c-5.8 0-13.1 5.2-13.1 16.5 0 11.5 7.2 16.3 13.1 16.4 5.9 0 13-4.9 13.1-16.4-.1-11.4-7.2-16.5-13.1-16.5m0 36.9c-6.2 0-11.6-2.1-15.4-5.8-3.8-3.6-6-8.8-6-14.6 0-5.8 2.2-11 6-14.6 3.8-3.7 9.2-5.8 15.4-5.8 6.2 0 11.6 2.2 15.4 5.8 3.8 3.7 6 8.8 6 14.6 0 5.8-2.2 11-6 14.6-3.8 3.6-9.2 5.8-15.4 5.8zM153.7 12.7c-5.8 0-13.1 5.2-13.1 16.5 0 11.5 7.2 16.3 13.1 16.4 5.9 0 13-4.9 13.1-16.4 0-11.4-7.2-16.5-13.1-16.5m0 36.9c-6.2 0-11.6-2.1-15.4-5.8-3.8-3.6-6-8.8-6-14.6 0-5.8 2.2-11 6-14.6 3.8-3.7 9.2-5.8 15.4-5.8 6.2 0 11.6 2.2 15.4 5.8 3.8 3.7 6 8.8 6 14.6 0 5.8-2.2 11-6 14.6-3.8 3.6-9.2 5.8-15.4 5.8zM189.9 13.9c-2 0-2.9 0-4 .1 0 3.4-.1 9.2-.1 14.5 0 6.3 0 12.3.1 15.9h2.5c1.6 0 2.8 0 3.1-.1 8.9-1.1 14.3-6.6 14.3-15.3 0-5.2-2.1-8.9-5.1-11.4-3.1-2.5-7.1-3.7-10.8-3.7m3.1 34.8c-5.2 0-5-.1-7.8-.1H178v-1.1s.2-13.8.2-18c0-4.2-.2-19-.2-19V9.3l1.2.1s1.9.1 5.8.1c6.7 0 4.8-.1 7.9-.1 5.7 0 11 1.8 14.9 5.2 3.9 3.4 6.3 8.4 6.3 14.4 0 6.2-2.5 11.2-6.4 14.5-4 3.5-9.2 5.2-14.7 5.2M238.6 48.7h-2l-.8.1-.3-.7c-2.7-5.6-2.8-6-6.8-14.2-2.4-4.9-4-8.1-6-12.4-.3 3.7-.5 6.3-1 11.8-.5 5.6-.6 8.7-1 14.3l-.1 1.1-1.1-.1h-2.8l-1.3.1.1-1.3c.6-5.8.9-9.6 1.7-18.7.8-9 1.3-13 1.7-18.7l.1-1.1 1.1.1h4.9l.3.7s2.6 5.5 6.4 13.2c3.7 7.5 5 9.9 7.5 15 2.3-4.9 3.8-8.2 6.3-13.6 3-6.5 6.1-13.2 6.7-14.6l.3-.7h4.7l1.1-.1.1 1s.8 8.1 2.1 17.8c1.4 11 1.9 14.9 2.6 19.6l.2 1.3H262c-.9 0-2-.1-3.2-.1-.9 0-1.7 0-2.6.1l-1 .1-.1-1s-.7-7.1-1.5-14.9c-.4-4.3-1-8.5-1.3-11.5-1.7 3.6-2.9 6.1-5.4 11.5-3.4 7.4-4.3 9.3-7 15.2l-.3.7h-1zM285 12.7c-5.8 0-13.1 5.2-13.1 16.5 0 11.5 7.2 16.3 13.1 16.4 5.9 0 13-4.9 13.1-16.4 0-11.4-7.2-16.5-13.1-16.5m0 36.9c-6.2 0-11.6-2.1-15.4-5.8-3.8-3.6-6-8.8-6-14.6 0-5.8 2.2-11 6-14.6 3.8-3.7 9.2-5.8 15.4-5.8 6.2 0 11.6 2.2 15.4 5.8 3.8 3.7 6 8.8 6 14.6 0 5.8-2.2 11-6 14.6-3.8 3.6-9.1 5.8-15.4 5.8zM337.6 49.2h-.5l-.3-.4s-7.7-9.9-14.1-17.7c-4.3-5.3-6.5-7.8-8.8-10.5v8.5c0 3.9.1 13.1.2 18.5v1.2l-1.2-.1h-2.5l-1.2.1v-1.2c0-.7.1-14.6.1-18.5 0-4-.1-17.9-.1-18.6V9.3l1.2.1c.4 0 1.2.1 2 .1s1.6 0 2.2-.1h.6l.4.5s6.2 8 13.1 16.5c4.7 5.8 7.4 9 9.8 11.9v-9.1c0-4-.1-15-.2-18.5V9.5l1.2.1h2.5l1.2-.1v1.2c0 .6-.1 14.5 0 18.5v20.1H337.6zM364.4 48.7c-.8 0-1.7-.1-2.7-.1-1 0-2 0-2.9.1l-1.2.1v-1.2s.2-13.8.2-18c0-3-.1-11.3-.1-15.8-3.1 0-7.6 0-10.6.2H346V9.5h1.1c.5 0 6 .1 10.2.1h8.8c4.2 0 9.6-.1 10.1-.1h1.1V14l-1.2-.1c-3-.1-7.5-.2-10.6-.2 0 4.6-.1 12.8-.1 15.8 0 4.3.2 18 .2 18v1.2h-1.2zM57.5 68.5s-1.6-3.8-3.8-9.2c-1.9-4.5-4.2-10-6.4-15.3L37 69.5l-1-.1c-.8 0-1.7-.1-2.6-.1-.9 0-1.8 0-2.6.1l-1 .1-.4-1s-2.1-5-4.8-11.6c-2.8-6.6-6.2-14.9-9-21.3C9.9 22.6.9 2.2.9 2.2L0 0l2.3.1c1.2 0 2.6.1 4 .1S9 .2 10 .1h1l.4.9s7.1 16.7 11.7 27.3c2.7 6.3 6.1 14.3 8.9 20.7 1.4 3.2 2.6 6.1 3.5 8.1l8.4-21c-.1-.2-.2-.4-.2-.6C38 22.6 29.1 2.2 29.1 2.2l-1-2.2 2.3.1c1.2 0 2.6.1 4 .1s2.7 0 3.7-.1h1l.4.9s7.1 16.7 11.7 27.3c2.7 6.3 6.1 14.3 8.9 20.7 1.4 3.2 2.6 6.1 3.5 8.1L86.2 1l.4-1 1.1.1h5.5l-28 69.4-1.1-.1c-.8 0-1.7-.1-2.6-.1-.9 0-1.8 0-2.6.1l-1 .1-.4-1z"/><path class="st1" d="M42.9.2l11.4 26.2L64.9.1z"/></svg>